<?xml version="1.0" standalone="no"?>
<!DOCTYPE svg PUBLIC "-//W3C//DTD SVG 20010904//EN"
 "http://www.w3.org/TR/2001/REC-SVG-20010904/DTD/svg10.dtd">
<svg version="1.0" xmlns="http://www.w3.org/2000/svg"
 width="700.000000pt" height="700.000000pt" viewBox="0 0 700.000000 700.000000"
 preserveAspectRatio="xMidYMid meet">
<metadata>
Created by potrace 1.14, written by Peter Selinger 2001-2017
</metadata>
<g transform="translate(0.000000,700.000000) scale(0.100000,-0.100000)"
fill="#000000" stroke="none">
<path d="M3561 6749 c-118 -20 -254 -93 -335 -180 -64 -69 -97 -135 -103 -210
l-6 -57 -29 59 c-39 79 -110 139 -233 199 -176 87 -359 128 -600 137 -427 16
-799 -104 -1049 -338 -85 -79 -146 -158 -206 -266 l-47 -84 -82 -4 c-199 -10
-352 -98 -417 -240 -59 -127 -33 -259 75 -378 l33 -37 -40 -44 c-22 -24 -50
-62 -61 -85 -67 -131 -67 -321 0 -453 45 -87 170 -188 234 -188 11 0 36 -13
55 -28 19 -16 50 -37 67 -47 18 -11 33 -25 33 -31 0 -7 -11 -89 -25 -182 -45
-312 -57 -472 -58 -757 -1 -351 24 -597 89 -886 56 -249 151 -524 250 -722
l45 -88 37 7 c20 4 38 8 40 9 2 2 -17 44 -42 93 -95 189 -173 405 -231 632
-130 520 -148 1053 -59 1746 9 71 17 130 18 130 0 1 29 -3 64 -9 202 -34 418
95 526 314 66 135 81 199 80 349 0 148 -16 218 -77 334 -28 54 -63 101 -110
148 l-69 68 12 52 13 52 22 -26 c19 -22 44 -79 61 -136 5 -16 44 2 44 21 0 33
322 243 535 350 408 203 771 270 1285 238 792 -50 1234 -270 1558 -778 l34
-53 -57 -62 c-70 -78 -135 -208 -172 -344 -25 -91 -27 -115 -27 -289 -1 -169
2 -200 23 -280 63 -240 154 -391 285 -477 61 -39 101 -47 176 -32 30 7 28 8
-43 31 -135 42 -234 137 -317 303 -146 291 -144 618 6 910 47 91 121 176 189
216 240 140 605 -27 768 -351 13 -27 39 -95 57 -150 30 -90 33 -112 34 -220 0
-96 -4 -136 -22 -200 -63 -222 -202 -398 -385 -490 -38 -19 -84 -37 -103 -41
-47 -9 -43 -20 12 -28 41 -5 55 -1 128 36 106 55 251 198 313 308 110 196 139
418 83 620 -99 356 -389 611 -695 610 -51 -1 -99 -7 -133 -19 l-53 -18 -50 74
c-73 107 -197 259 -270 329 -186 177 -433 308 -714 380 -60 15 -111 28 -112
29 -5 3 28 107 56 177 38 95 40 153 7 225 -30 63 -86 107 -157 122 -57 12 -82
12 -158 0z m211 -65 c83 -59 106 -152 63 -255 -15 -35 -36 -93 -47 -129 l-21
-66 -75 13 c-103 18 -349 43 -419 43 -93 0 -103 5 -103 54 0 79 27 135 104
212 112 112 240 166 379 160 67 -2 83 -7 119 -32z m-1227 -219 c80 -22 186
-79 242 -130 l46 -41 -94 -12 c-397 -53 -804 -221 -1172 -484 -60 -43 -112
-78 -116 -78 -4 0 -14 12 -23 28 -9 15 -26 36 -37 46 l-20 18 20 51 c146 371
567 638 979 622 63 -2 142 -12 175 -20z m-1615 -507 c0 -2 -14 -56 -30 -122
-17 -65 -30 -126 -30 -136 0 -11 -21 -31 -50 -50 -63 -41 -152 -137 -192 -208
l-32 -55 -37 41 c-61 69 -83 126 -83 212 -1 59 4 84 22 118 63 119 211 200
370 201 34 1 62 0 62 -1z"/>
<path d="M3705 6466 c-36 -16 -120 -103 -130 -135 -11 -35 2 -36 19 -3 9 17
20 33 25 37 5 3 35 -4 66 -16 72 -27 86 -16 17 12 -29 12 -52 25 -52 30 0 14
74 69 93 69 10 0 15 5 12 10 -8 13 -13 12 -50 -4z"/>
<path d="M2620 5380 c-218 -22 -422 -100 -585 -225 -399 -304 -507 -798 -271
-1241 149 -280 426 -510 731 -607 135 -44 192 -52 355 -51 125 1 170 5 232 22
110 30 213 76 293 130 63 43 70 51 82 97 6 27 11 51 9 52 -1 2 -31 -19 -65
-47 -194 -156 -451 -225 -707 -189 -370 51 -711 302 -876 646 -73 151 -100
268 -100 428 0 157 20 245 87 382 122 247 346 420 653 505 66 19 104 22 267
22 163 0 201 -3 267 -22 187 -51 330 -133 466 -266 160 -155 256 -343 297
-580 l6 -38 24 22 c18 17 23 30 19 49 -66 304 -202 531 -417 694 -216 165
-498 245 -767 217z"/>
<path d="M5538 4891 c-150 -48 -175 -263 -40 -339 117 -65 262 9 278 143 4 42
3 47 -7 30 -36 -61 -103 -73 -150 -26 -37 37 -38 79 -4 120 19 21 36 31 63 33
l37 3 -32 18 c-39 21 -108 30 -145 18z"/>
<path d="M2803 4689 c-175 -34 -278 -203 -228 -374 22 -75 105 -163 179 -188
103 -35 212 -15 291 55 67 59 98 126 99 213 1 39 -3 79 -7 90 -7 18 -10 17
-24 -13 -33 -69 -119 -99 -187 -67 -105 50 -114 194 -14 255 22 13 27 21 17
24 -34 11 -87 13 -126 5z"/>
<path d="M3693 4288 l-368 -323 135 -9 c74 -4 138 -12 141 -18 3 -5 -9 -62
-27 -125 -88 -304 -173 -799 -186 -1083 l-2 -55 389 -3 390 -2 0 154 0 154
-45 -4 c-133 -14 -366 -31 -372 -27 -22 12 5 256 57 518 39 196 100 425 118
441 9 9 51 9 165 1 83 -6 154 -8 156 -6 7 6 -167 709 -176 709 -4 0 -173 -145
-375 -322z"/>
<path d="M4462 4092 c-29 -11 -68 -33 -85 -50 -18 -17 -48 -34 -67 -39 -19 -5
-35 -15 -34 -21 1 -7 2 -21 3 -33 1 -17 5 -20 26 -15 21 5 31 1 51 -23 49 -58
218 -97 311 -72 23 6 56 24 74 38 31 26 32 26 46 7 8 -10 18 -25 22 -33 10
-17 61 -7 61 12 0 7 -20 33 -45 57 -25 24 -45 51 -45 58 0 29 -40 78 -81 101
-59 33 -164 39 -237 13z"/>
<path d="M4088 3852 c-6 -6 -13 -32 -15 -55 -9 -78 38 -135 157 -190 36 -17
67 -31 68 -33 2 -1 -4 -50 -14 -108 -14 -80 -15 -109 -7 -117 13 -13 11 -20
40 128 19 101 12 94 85 79 20 -5 31 -1 42 16 20 28 15 34 -35 42 -48 8 -132
46 -172 78 -40 33 -59 94 -42 135 l13 31 -55 4 c-35 2 -58 -1 -65 -10z"/>
<path d="M4975 3643 c-72 -10 -202 -45 -270 -74 -109 -45 -112 -85 -5 -71 79
10 384 6 455 -6 33 -5 63 -7 66 -4 4 4 9 42 13 85 l6 77 -118 -1 c-64 -1 -130
-4 -147 -6z"/>
<path d="M5316 3553 c4 -43 9 -81 13 -84 3 -3 47 -14 96 -23 120 -22 217 -52
289 -87 32 -16 64 -29 72 -29 28 0 13 39 -33 82 -91 84 -202 148 -337 193
-110 37 -107 39 -100 -52z"/>
<path d="M6052 3341 c-34 -10 -65 -20 -67 -23 -3 -2 1 -13 8 -23 13 -17 16
-17 68 0 69 24 136 24 171 1 35 -23 68 -92 68 -140 0 -32 -7 -46 -45 -84 -25
-24 -45 -46 -45 -48 0 -2 17 -4 39 -4 32 0 44 6 74 39 58 65 62 151 10 225
-16 21 -44 47 -63 57 -44 24 -133 24 -218 0z"/>
<path d="M4695 3325 c-145 -22 -200 -38 -200 -61 0 -17 13 -20 155 -31 131
-10 214 -21 496 -70 36 -6 38 -1 50 103 l6 61 -68 6 c-109 11 -341 6 -439 -8z"/>
<path d="M5330 3210 c0 -74 1 -80 23 -85 12 -3 76 -16 142 -30 66 -14 171 -40
233 -57 82 -22 116 -28 124 -20 8 8 8 15 -2 27 -16 19 -152 101 -245 148 -73
36 -236 97 -261 97 -11 0 -14 -18 -14 -80z"/>
<path d="M4425 3016 c-18 -13 -17 -14 6 -29 50 -31 665 -193 681 -178 9 8 33
150 26 156 -8 9 -145 24 -348 39 -357 27 -345 27 -365 12z"/>
<path d="M6070 2869 c0 -68 -3 -134 -6 -147 l-7 -23 139 3 139 3 3 -175 c3
-197 -9 -361 -38 -495 -26 -115 -59 -215 -74 -221 -6 -2 -79 4 -161 14 -83 10
-152 14 -153 10 -6 -14 132 -708 140 -706 6 3 280 302 536 586 l74 82 -126 -7
c-105 -5 -126 -4 -126 8 0 8 20 73 44 145 49 145 87 291 112 429 18 97 31 472
20 548 l-7 44 -137 7 c-75 3 -190 9 -254 13 l-118 6 0 -124z"/>
<path d="M5316 2918 c-2 -7 -8 -41 -13 -75 -7 -47 -6 -64 3 -67 25 -9 460 -29
487 -22 33 8 31 26 -4 43 -24 12 -377 115 -437 128 -23 5 -33 3 -36 -7z"/>
<path d="M4558 2682 c-60 -12 55 -79 273 -161 l86 -33 -27 -51 c-16 -29 -31
-67 -35 -84 -8 -38 -8 -38 -118 -18 -77 13 -107 12 -107 -6 0 -14 79 -67 157
-106 68 -34 73 -38 89 -85 9 -27 31 -69 50 -94 36 -46 94 -103 106 -104 4 0 5
51 1 113 l-6 112 34 45 c129 170 343 171 472 2 l27 -36 0 36 c0 43 -33 155
-54 183 -9 11 -16 25 -16 30 0 6 36 16 81 22 146 19 131 51 -41 83 -63 11
-164 32 -224 47 -75 17 -126 24 -167 21 -41 -3 -59 -1 -59 7 0 8 -52 18 -147
29 -82 10 -195 25 -253 34 -58 10 -113 16 -122 14z m771 -158 c87 -26 153
-100 190 -217 22 -67 7 -60 -59 25 -36 46 -93 111 -128 146 -35 34 -62 62 -59
62 2 0 27 -7 56 -16z"/>
<path d="M3565 2566 c-194 -65 -393 -145 -364 -146 22 0 636 178 704 204 6 3
-26 5 -70 5 -73 1 -97 -5 -270 -63z"/>
<path d="M2597 2318 c-2 -7 10 -29 28 -49 18 -20 55 -77 81 -125 36 -64 76
-117 145 -189 120 -125 129 -139 129 -194 0 -53 -28 -102 -74 -130 -95 -59
-217 18 -395 249 -76 98 -110 159 -111 197 0 32 -17 37 -35 10 -14 -22 -14
-28 2 -71 41 -108 233 -341 336 -409 123 -82 203 -84 278 -8 62 61 78 115 55
187 -16 52 -48 94 -161 214 -34 36 -94 115 -135 175 -40 61 -82 120 -93 133
-23 24 -43 29 -50 10z"/>
<path d="M4687 2022 c-10 -10 -17 -27 -17 -38 0 -10 -8 -65 -17 -121 -21 -124
-16 -162 57 -428 41 -149 71 -272 115 -472 4 -18 -6 -26 -83 -58 -198 -83
-636 -217 -651 -199 -4 5 -18 34 -30 64 -55 133 -119 214 -161 203 -25 -7 -25
-11 0 -31 26 -23 146 -260 170 -340 38 -122 21 -214 -46 -245 -41 -20 -94 -22
-116 -4 -9 6 -32 57 -51 113 -37 108 -56 142 -148 266 -33 45 -63 94 -66 109
-6 34 -28 56 -38 39 -11 -18 4 -62 55 -155 l49 -90 -62 -10 c-58 -9 -62 -12
-65 -39 l-4 -29 80 7 80 6 27 -82 c15 -46 38 -104 50 -129 l23 -47 -51 -6
c-479 -57 -1208 -37 -1473 40 -125 36 -170 63 -278 164 -102 96 -157 128 -254
149 -134 28 -214 -2 -196 -74 9 -38 43 -55 126 -66 102 -15 145 -36 236 -121
43 -41 100 -87 126 -102 182 -107 475 -143 1089 -133 464 7 734 38 1041 117
305 78 503 183 619 325 61 76 89 149 94 250 5 70 0 102 -40 265 -25 102 -68
266 -97 365 -74 263 -77 370 -9 437 34 34 38 77 11 101 -25 22 -75 21 -95 -1z
m123 -1254 c-48 -129 -137 -206 -347 -301 -78 -35 -211 -78 -285 -92 l-35 -7
5 50 c2 27 -3 87 -12 132 -10 45 -16 83 -14 85 2 1 71 21 154 43 243 67 523
167 541 195 18 27 13 -53 -7 -105z"/>
<path d="M790 1764 c-278 -40 -506 -73 -507 -74 -10 -1 0 -467 12 -596 16
-176 63 -501 75 -523 6 -11 739 -230 955 -285 20 -5 20 -2 13 97 -19 281 -30
731 -26 1075 2 259 0 382 -7 381 -5 -1 -237 -34 -515 -75z"/>
<path d="M2028 1573 c6 -2 18 -2 25 0 6 3 1 5 -13 5 -14 0 -19 -2 -12 -5z"/>
<path d="M1890 1550 c-75 -27 -155 -84 -202 -144 -39 -49 -83 -125 -76 -131 2
-2 16 21 32 51 60 114 186 208 311 232 36 7 41 10 20 11 -16 0 -55 -9 -85 -19z"/>
<path d="M2083 1563 c9 -2 25 -2 35 0 9 3 1 5 -18 5 -19 0 -27 -2 -17 -5z"/>
<path d="M2193 1536 c111 -46 193 -121 248 -226 15 -30 28 -51 29 -47 1 22
-56 113 -106 166 -54 59 -172 131 -213 131 -9 0 10 -11 42 -24z"/>
<path d="M1960 1516 c0 -14 21 -58 26 -54 8 8 -7 58 -17 58 -5 0 -9 -2 -9 -4z"/>
<path d="M2111 1489 c-13 -38 -13 -39 -2 -39 5 0 11 8 14 18 2 9 8 25 12 35 4
9 3 17 -3 17 -6 0 -15 -14 -21 -31z"/>
<path d="M1820 1461 c0 -5 11 -16 25 -25 29 -19 34 -7 7 17 -21 19 -32 22 -32
8z"/>
<path d="M3040 1457 c0 -18 27 -53 35 -46 7 8 -15 59 -27 59 -4 0 -8 -6 -8
-13z"/>
<path d="M2225 1435 c-17 -13 -25 -24 -19 -25 15 0 61 37 54 44 -3 3 -19 -6
-35 -19z"/>
<path d="M3210 1425 c-7 -9 -10 -18 -7 -22 8 -7 37 15 37 28 0 14 -16 11 -30
-6z"/>
<path d="M3039 1377 c-132 -89 -95 -329 54 -354 18 -2 59 0 92 6 95 18 148 82
148 181 0 120 -79 189 -219 190 -27 0 -53 -8 -75 -23z m207 -26 c88 -54 88
-228 0 -282 -92 -56 -196 19 -196 141 0 122 104 197 196 141z"/>
<path d="M3211 1276 c-45 -46 -52 -81 -17 -81 20 0 89 102 79 117 -8 14 -19 8
-62 -36z"/>
<path d="M1785 1370 c10 -11 71 -66 137 -122 65 -56 118 -107 118 -114 0 -11
21 -24 40 -24 4 0 10 9 13 20 4 14 -2 24 -16 32 -12 6 -79 60 -148 120 -70 59
-135 108 -145 108 -16 0 -16 -1 1 -20z"/>
<path d="M2311 1366 c-14 -14 -23 -28 -20 -30 7 -8 51 33 47 44 -2 6 -14 0
-27 -14z"/>
<path d="M2910 1360 c19 -17 41 -30 50 -30 9 1 2 12 -20 30 -19 17 -41 30 -50
30 -9 -1 -2 -12 20 -30z"/>
<path d="M1720 1343 c1 -14 49 -43 54 -34 3 5 -5 16 -19 25 -27 18 -35 20 -35
9z"/>
<path d="M2368 1288 c-39 -14 -35 -29 4 -17 18 5 34 9 35 9 2 0 3 5 3 10 0 12
-6 12 -42 -2z"/>
<path d="M1596 1245 c-3 -9 -6 -22 -5 -28 0 -7 5 -1 10 12 5 13 8 26 5 28 -2
2 -6 -3 -10 -12z"/>
<path d="M1670 1251 c0 -4 11 -13 25 -19 31 -14 35 -15 35 -3 0 5 -13 14 -30
20 -16 5 -30 6 -30 2z"/>
<path d="M2840 1220 c0 -5 21 -10 46 -10 27 0 43 4 39 10 -3 6 -24 10 -46 10
-21 0 -39 -4 -39 -10z"/>
<path d="M2481 1204 c0 -11 3 -14 6 -6 3 7 2 16 -1 19 -3 4 -6 -2 -5 -13z"/>
<path d="M1582 1180 c0 -14 2 -19 5 -12 2 6 2 18 0 25 -3 6 -5 1 -5 -13z"/>
<path d="M2385 1193 c-41 -10 -41 -26 0 -18 51 9 81 25 45 24 -14 -1 -34 -3
-45 -6z"/>
<path d="M2492 1145 c0 -16 2 -22 5 -12 2 9 2 23 0 30 -3 6 -5 -1 -5 -18z"/>
<path d="M1645 1152 c6 -6 28 -14 50 -17 28 -5 37 -4 30 3 -5 6 -28 14 -50 17
-28 5 -37 4 -30 -3z"/>
<path d="M1572 1108 l-2 -38 468 2 467 3 -462 2 -462 3 -4 33 c-4 31 -4 31 -5
-5z"/>
<path d="M2280 986 c0 -8 5 -18 11 -22 8 -4 3 -11 -12 -19 -20 -11 -28 -10
-51 7 -24 17 -28 17 -28 3 0 -8 11 -20 25 -27 19 -9 22 -14 15 -29 -21 -38 -7
-99 29 -126 20 -15 85 -17 112 -3 49 27 61 117 19 155 -10 9 -16 23 -13 31 6
17 -8 19 -24 3 -15 -15 -51 -2 -58 22 -7 22 -25 26 -25 5z m105 -76 c42 -46
11 -130 -46 -130 -55 0 -77 74 -38 124 25 31 59 34 84 6z"/>
<path d="M2330 859 c0 -12 40 -48 53 -49 5 0 0 14 -10 30 -17 29 -43 41 -43
19z"/>
<path d="M1902 972 c2 -10 -9 -33 -25 -51 -56 -67 -24 -157 60 -168 37 -5 45
-2 73 25 24 25 30 39 30 75 0 31 -6 49 -20 62 -13 11 -18 25 -14 37 6 19 -10
25 -21 8 -7 -12 -66 -14 -64 -2 3 18 -2 32 -12 32 -5 0 -9 -8 -7 -18z m102
-68 c24 -24 21 -89 -6 -114 -28 -25 -52 -26 -78 0 -24 24 -26 77 -4 108 18 26
65 30 88 6z"/>
<path d="M1910 862 c0 -5 14 -15 31 -21 40 -14 39 -14 39 4 0 8 -6 15 -12 15
-7 0 -23 3 -35 6 -13 4 -23 2 -23 -4z"/>
<path d="M1820 952 c0 -14 36 -43 43 -35 4 3 0 15 -10 25 -17 19 -33 24 -33
10z"/>
<path d="M2931 824 c-1 -50 -4 -119 -7 -153 l-7 -61 89 1 c49 0 83 3 77 6 -9
3 -13 26 -13 64 0 46 7 73 30 119 46 90 46 90 -64 90 -66 0 -96 4 -99 13 -3 6
-6 -29 -6 -79z"/>
<path d="M3023 903 c9 -2 25 -2 35 0 9 3 1 5 -18 5 -19 0 -27 -2 -17 -5z"/>
<path d="M3260 856 c0 -23 -3 -84 -6 -134 l-7 -92 74 0 74 0 -3 61 c-3 53 0
69 27 119 l31 59 -22 15 c-14 10 -24 12 -26 6 -5 -13 -83 -13 -116 0 -25 9
-26 9 -26 -34z"/>
<path d="M2176 883 c-3 -3 -3 -10 0 -14 7 -12 44 -12 44 0 0 10 -36 21 -44 14z"/>
<path d="M1790 871 c0 -10 36 -21 44 -14 3 3 3 10 0 14 -7 12 -44 12 -44 0z"/>
<path d="M3307 593 c-14 -13 -7 -81 9 -94 33 -27 64 21 50 77 -5 17 -13 24
-30 24 -12 0 -26 -3 -29 -7z"/>
<path d="M2987 574 c-12 -13 -8 -92 6 -97 24 -8 47 5 47 28 0 14 -7 25 -17 28
-17 4 -16 5 0 6 25 1 18 35 -9 39 -11 2 -23 0 -27 -4z"/>
</g>
</svg>
